<?xml version="1.0" encoding="UTF-8" standalone="no"?>
<!-- Created with Inkscape (http://www.inkscape.org/) -->
<svg
   xmlns:dc="http://purl.org/dc/elements/1.1/"
   xmlns:cc="http://creativecommons.org/ns#"
   xmlns:rdf="http://www.w3.org/1999/02/22-rdf-syntax-ns#"
   xmlns:svg="http://www.w3.org/2000/svg"
   xmlns="http://www.w3.org/2000/svg"
   xmlns:xlink="http://www.w3.org/1999/xlink"
   xmlns:sodipodi="http://sodipodi.sourceforge.net/DTD/sodipodi-0.dtd"
   xmlns:inkscape="http://www.inkscape.org/namespaces/inkscape"
   version="1.0"
   width="960"
   height="240"
   id="svg2"
   sodipodi:version="0.32"
   inkscape:version="0.46"
   sodipodi:docname="topBanner.svg"
   inkscape:output_extension="org.inkscape.output.svg.inkscape">
  <metadata
     id="metadata83">
    <rdf:RDF>
      <cc:Work
         rdf:about="">
        <dc:format>image/svg+xml</dc:format>
        <dc:type
           rdf:resource="http://purl.org/dc/dcmitype/StillImage" />
      </cc:Work>
    </rdf:RDF>
  </metadata>
  <sodipodi:namedview
     inkscape:window-height="667"
     inkscape:window-width="883"
     inkscape:pageshadow="2"
     inkscape:pageopacity="0.0"
     guidetolerance="10.0"
     gridtolerance="10.0"
     objecttolerance="10.0"
     borderopacity="1.0"
     bordercolor="#666666"
     pagecolor="#ffffff"
     id="base"
     showgrid="false"
     inkscape:zoom="0.80138769"
     inkscape:cx="365.44974"
     inkscape:cy="67.819138"
     inkscape:window-x="48"
     inkscape:window-y="48"
     inkscape:current-layer="svg2" />
  <defs
     id="defs4">
    <linearGradient
       id="linearGradient3246">
      <stop
         style="stop-color:#2d2d2d;stop-opacity:1;"
         offset="0"
         id="stop3248" />
      <stop
         style="stop-color:#2d2d2d;stop-opacity:1;"
         offset="1"
         id="stop3250" />
    </linearGradient>
    <linearGradient
       id="linearGradient3240">
      <stop
         id="stop3242"
         offset="0"
         style="stop-color:#1e1e1e;stop-opacity:1;" />
      <stop
         id="stop3244"
         offset="1"
         style="stop-color:#2e2e2e;stop-opacity:1;" />
    </linearGradient>
    <linearGradient
       id="linearGradient3232">
      <stop
         style="stop-color:#2d2d2d;stop-opacity:1;"
         offset="0"
         id="stop3234" />
      <stop
         style="stop-color:#2d2d2d;stop-opacity:1;"
         offset="1"
         id="stop3236" />
    </linearGradient>
    <linearGradient
       id="linearGradient3224">
      <stop
         style="stop-color:#2e2e2e;stop-opacity:1;"
         offset="0"
         id="stop3226" />
      <stop
         style="stop-color:#1e1e1e;stop-opacity:1;"
         offset="1"
         id="stop3228" />
    </linearGradient>
    <inkscape:perspective
       sodipodi:type="inkscape:persp3d"
       inkscape:vp_x="0 : 120 : 1"
       inkscape:vp_y="0 : 1000 : 0"
       inkscape:vp_z="960 : 120 : 1"
       inkscape:persp3d-origin="480 : 80 : 1"
       id="perspective85" />
    <linearGradient
       x1="609.43201"
       y1="175.60268"
       x2="612.6925"
       y2="165.53325"
       id="linearGradient8747"
       xlink:href="#linearGradient8741"
       gradientUnits="userSpaceOnUse" />
    <clipPath
       id="clipPath5778">
      <path
         d="M 351.83036,531.33929 A 3.9732144,2.5446429 0 1 1 343.88393,531.33929 A 3.9732144,2.5446429 0 1 1 351.83036,531.33929 z"
         transform="matrix(0.9913397,-1.4880743e-2,4.8841419e-2,0.713028,241.539,-202.77614)"
         id="path5780"
         style="opacity:0.97777776;fill:#ff3214;fill-opacity:1;stroke:none;stroke-width:0.89999998;stroke-linejoin:miter;stroke-miterlimit:4;stroke-dasharray:none;stroke-opacity:0.40131579" />
    </clipPath>
    <linearGradient
       x1="239.04062"
       y1="629.64282"
       x2="243.77451"
       y2="642.67139"
       id="linearGradient5664"
       xlink:href="#linearGradient5658"
       gradientUnits="userSpaceOnUse" />
    <radialGradient
       cx="242.5"
       cy="635.35712"
       r="9.2857141"
       fx="242.5"
       fy="635.35712"
       id="radialGradient5646"
       xlink:href="#linearGradient5640"
       gradientUnits="userSpaceOnUse"
       gradientTransform="matrix(1,0,0,0.6153846,0,244.36811)" />
    <linearGradient
       x1="237.12407"
       y1="629.64282"
       x2="254.71806"
       y2="646.78571"
       id="linearGradient5638"
       xlink:href="#linearGradient5632"
       gradientUnits="userSpaceOnUse" />
    <radialGradient
       cx="341.96429"
       cy="536.11218"
       r="3.0357144"
       fx="341.96429"
       fy="536.11218"
       id="radialGradient5626"
       xlink:href="#linearGradient3511"
       gradientUnits="userSpaceOnUse" />
    <radialGradient
       cx="341.96429"
       cy="536.11218"
       r="3.0357144"
       fx="341.96429"
       fy="536.11218"
       id="radialGradient5624"
       xlink:href="#linearGradient3511"
       gradientUnits="userSpaceOnUse" />
    <radialGradient
       cx="341.96429"
       cy="536.11218"
       r="3.0357144"
       fx="341.96429"
       fy="536.11218"
       id="radialGradient5620"
       xlink:href="#linearGradient3511"
       gradientUnits="userSpaceOnUse" />
    <radialGradient
       cx="341.96429"
       cy="536.11218"
       r="3.0357144"
       fx="341.96429"
       fy="536.11218"
       id="radialGradient5618"
       xlink:href="#linearGradient3511"
       gradientUnits="userSpaceOnUse" />
    <radialGradient
       cx="341.96429"
       cy="536.11218"
       r="3.0357144"
       fx="341.96429"
       fy="536.11218"
       id="radialGradient5616"
       xlink:href="#linearGradient3511"
       gradientUnits="userSpaceOnUse" />
    <radialGradient
       cx="341.96429"
       cy="536.11218"
       r="3.0357144"
       fx="341.96429"
       fy="536.11218"
       id="radialGradient5614"
       xlink:href="#linearGradient3511"
       gradientUnits="userSpaceOnUse" />
    <radialGradient
       cx="341.96429"
       cy="536.11218"
       r="3.0357144"
       fx="341.96429"
       fy="536.11218"
       id="radialGradient5610"
       xlink:href="#linearGradient3511"
       gradientUnits="userSpaceOnUse" />
    <linearGradient
       id="linearGradient2346">
      <stop
         id="stop2348"
         style="stop-color:#ffffe3;stop-opacity:0.22222222"
         offset="0" />
      <stop
         id="stop2354"
         style="stop-color:#6cc024;stop-opacity:1"
         offset="0.3108108" />
      <stop
         id="stop2350"
         style="stop-color:#ffffff;stop-opacity:0.14814815"
         offset="1" />
    </linearGradient>
    <linearGradient
       id="linearGradient2362">
      <stop
         id="stop2364"
         style="stop-color:#ffffff;stop-opacity:0.96825397"
         offset="0" />
      <stop
         id="stop2366"
         style="stop-color:#97c024;stop-opacity:0"
         offset="1" />
    </linearGradient>
    <linearGradient
       id="linearGradient2404">
      <stop
         id="stop2406"
         style="stop-color:#ffffff;stop-opacity:0.81481481"
         offset="0" />
      <stop
         id="stop2408"
         style="stop-color:#ffffff;stop-opacity:0.14509805"
         offset="1" />
    </linearGradient>
    <linearGradient
       id="linearGradient2428">
      <stop
         id="stop2430"
         style="stop-color:#ffffff;stop-opacity:0.37037036"
         offset="0" />
      <stop
         id="stop2432"
         style="stop-color:#97c024;stop-opacity:0.12698413"
         offset="1" />
    </linearGradient>
    <linearGradient
       id="linearGradient3415">
      <stop
         id="stop3417"
         style="stop-color:#ffffff;stop-opacity:1"
         offset="0" />
      <stop
         id="stop3419"
         style="stop-color:#97c024;stop-opacity:0.34920636"
         offset="1" />
    </linearGradient>
    <linearGradient
       id="linearGradient3485">
      <stop
         id="stop3487"
         style="stop-color:#ffffff;stop-opacity:1"
         offset="0" />
      <stop
         id="stop3489"
         style="stop-color:#000000;stop-opacity:0"
         offset="1" />
    </linearGradient>
    <linearGradient
       id="linearGradient3511">
      <stop
         id="stop3513"
         style="stop-color:#ffffff;stop-opacity:1"
         offset="0" />
      <stop
         id="stop3515"
         style="stop-color:#ffffff;stop-opacity:0"
         offset="1" />
    </linearGradient>
    <linearGradient
       id="linearGradient5470">
      <stop
         id="stop5472"
         style="stop-color:#ffffff;stop-opacity:0.81481481"
         offset="0" />
      <stop
         id="stop5474"
         style="stop-color:#ffffff;stop-opacity:0.14509805"
         offset="1" />
    </linearGradient>
    <linearGradient
       id="linearGradient5476">
      <stop
         id="stop5478"
         style="stop-color:#ffffff;stop-opacity:1"
         offset="0" />
      <stop
         id="stop5480"
         style="stop-color:#ffffff;stop-opacity:0.8677249"
         offset="1" />
    </linearGradient>
    <linearGradient
       id="linearGradient5632">
      <stop
         id="stop5634"
         style="stop-color:#ffffff;stop-opacity:1"
         offset="0" />
      <stop
         id="stop5636"
         style="stop-color:#ffff00;stop-opacity:1"
         offset="1" />
    </linearGradient>
    <linearGradient
       id="linearGradient5640">
      <stop
         id="stop5642"
         style="stop-color:#ffff00;stop-opacity:1"
         offset="0" />
      <stop
         id="stop5644"
         style="stop-color:#7a5000;stop-opacity:0.73404253"
         offset="1" />
    </linearGradient>
    <linearGradient
       id="linearGradient5658">
      <stop
         id="stop5660"
         style="stop-color:#ffffff;stop-opacity:1"
         offset="0" />
      <stop
         id="stop5662"
         style="stop-color:#ffff00;stop-opacity:0"
         offset="1" />
    </linearGradient>
    <linearGradient
       id="linearGradient5674">
      <stop
         id="stop5676"
         style="stop-color:#ffff00;stop-opacity:1"
         offset="0" />
      <stop
         id="stop5699"
         style="stop-color:#ffff09;stop-opacity:0.98039216"
         offset="0.12162162" />
      <stop
         id="stop5678"
         style="stop-color:#000100;stop-opacity:0.73333335"
         offset="1" />
    </linearGradient>
    <linearGradient
       id="linearGradient5719">
      <stop
         id="stop5721"
         style="stop-color:#000000;stop-opacity:1"
         offset="0" />
      <stop
         id="stop5723"
         style="stop-color:#dab859;stop-opacity:0.87830687"
         offset="1" />
    </linearGradient>
    <linearGradient
       id="linearGradient5731">
      <stop
         id="stop5733"
         style="stop-color:#ffff34;stop-opacity:1"
         offset="0" />
      <stop
         id="stop5735"
         style="stop-color:#fff54e;stop-opacity:0.17989418"
         offset="1" />
    </linearGradient>
    <linearGradient
       id="linearGradient8741">
      <stop
         id="stop8743"
         style="stop-color:#e69400;stop-opacity:0.16931216"
         offset="0" />
      <stop
         id="stop8745"
         style="stop-color:#e6ffff;stop-opacity:0"
         offset="1" />
    </linearGradient>
    <linearGradient
       inkscape:collect="always"
       xlink:href="#linearGradient3240"
       id="linearGradient3238"
       x1="-10.913237"
       y1="121.48641"
       x2="750.64966"
       y2="121.48641"
       gradientUnits="userSpaceOnUse"
       gradientTransform="matrix(0.3187384,0,0,4.1224897,-238.12979,-923.2702)" />
  </defs>
  <rect
     style="fill:url(#linearGradient3238);fill-opacity:1;fill-rule:nonzero;stroke:#2d2d2d;stroke-width:0;stroke-linecap:butt;stroke-linejoin:miter;marker:none;marker-start:none;marker-mid:none;marker-end:none;stroke-miterlimit:4;stroke-dasharray:none;stroke-dashoffset:0;stroke-opacity:1;visibility:visible;display:inline;overflow:visible;enable-background:accumulate"
     id="rect4262"
     y="-961.8078"
     x="-241.60826"
     ry="7.3237"
     rx="8.8319101"
     height="1078.7279"
     width="242.73933"
     transform="matrix(0,-1,-1,0,0,0)" />
  <g
     id="g2466"
     transform="matrix(0.2861379,0,0,0.2861379,544.97383,18.629325)">
    <path
       style="fill:#94c147"
       id="path2468"
       d="M 552.777,147.57 C 538.63,147.57 527.155,159.222 527.155,173.59 L 527.155,275.27 C 527.155,289.642 538.63,301.289 552.777,301.289 C 566.924,301.289 578.387,289.643 578.387,275.27 L 578.387,173.59 C 578.388,159.222 566.925,147.57 552.777,147.57 z M 243.766,147.57 C 229.611,147.57 218.148,159.222 218.148,173.59 L 218.148,275.27 C 218.148,289.642 229.61,301.289 243.766,301.289 C 257.919,301.289 269.389,289.643 269.389,275.27 L 269.389,173.59 C 269.381,159.222 257.914,147.57 243.766,147.57 z" />
    <path
       style="fill:#94c147"
       id="path2470"
       d="M 284.799,148.364 L 284.799,334.132 C 284.799,345.167 293.747,354.112 304.782,354.112 L 327.597,354.112 L 327.597,410.679 C 327.597,425.049 339.067,436.695 353.22,436.695 C 367.368,436.695 378.843,425.049 378.843,410.679 L 378.843,354.112 L 418.721,354.112 L 418.721,410.679 C 418.721,425.049 430.184,436.695 444.331,436.695 C 458.478,436.695 469.953,425.049 469.953,410.679 L 469.953,354.112 L 492.781,354.112 C 503.803,354.112 512.752,345.159 512.752,334.132 L 512.752,148.364 L 284.799,148.364 L 284.799,148.364 z" />
    <path
       style="fill:#94c147"
       id="path2472"
       d="M 452.302,52.105 L 473.359,21.533 C 474.604,19.714 474.298,17.334 472.664,16.204 C 471.027,15.081 468.696,15.636 467.439,17.455 L 445.564,49.205 C 431.16,43.523 415.146,40.361 398.271,40.361 C 381.401,40.361 365.378,43.523 350.974,49.205 L 329.099,17.455 C 327.842,15.636 325.51,15.08 323.874,16.204 C 322.238,17.328 321.928,19.713 323.178,21.533 L 344.235,52.105 C 310.771,67.675 287.284,97.271 284.294,131.811 L 512.25,131.811 C 509.259,97.271 485.772,67.676 452.302,52.105 z M 350.187,100.28 C 343.222,100.28 337.57,94.634 337.57,87.664 C 337.57,80.706 343.217,75.054 350.187,75.054 C 357.157,75.054 362.79,80.706 362.79,87.664 C 362.79,94.629 357.15,100.28 350.187,100.28 z M 447.931,100.28 C 440.961,100.28 435.322,94.634 435.322,87.664 C 435.322,80.706 440.962,75.054 447.931,75.054 C 454.902,75.054 460.541,80.706 460.541,87.664 C 460.541,94.629 454.901,100.28 447.931,100.28 z" />
  </g>
  <path
     transform="matrix(1.3635716,0,0,1.3635716,-4.6997946,-10.682066)"
     style="font-size:48px;font-style:italic;font-variant:normal;font-weight:normal;font-stretch:normal;text-align:start;line-height:100%;writing-mode:lr-tb;text-anchor:start;fill:#f0e2e2;fill-opacity:1;stroke:none;stroke-width:1px;stroke-linecap:butt;stroke-linejoin:miter;stroke-opacity:1;font-family:Times New Roman;-inkscape-font-specification:Times New Roman Italic"
     d="M 92.320312,73.005515 L 87.234375,57.560202 C 86.046861,57.575843 84.828113,57.458655 83.578125,57.20864 L 80.835938,66.818015 C 80.476554,68.06802 80.296867,69.122706 80.296875,69.982077 C 80.296867,70.63833 80.523429,71.153954 80.976562,71.528952 C 81.320304,71.810203 82.257803,72.013328 83.789062,72.138327 L 83.578125,73.005515 L 71.273438,73.005515 L 71.53125,72.138327 C 72.6875,72.091453 73.468749,71.974266 73.875,71.786765 C 74.515623,71.521141 74.984372,71.161767 75.28125,70.70864 C 75.781247,69.974268 76.304684,68.677394 76.851562,66.818015 L 82.40625,47.622702 C 82.78124,46.341479 82.968739,45.349292 82.96875,44.64614 C 82.968739,43.927419 82.675771,43.318044 82.089844,42.818015 C 81.503897,42.318045 80.664054,42.075858 79.570312,42.091452 L 79.851562,41.224265 L 90.210938,41.224265 C 93.679666,41.224296 96.179664,41.880546 97.710938,43.193015 C 99.242161,44.505543 100.00778,46.232104 100.00781,48.372702 C 100.00778,50.4196 99.222629,52.290692 97.652344,53.985983 C 96.082008,55.681313 93.929666,56.755531 91.195312,57.20864 L 94.289062,66.513327 C 95.03904,68.794581 95.789039,70.278955 96.539062,70.966452 C 97.289038,71.653954 98.499974,72.044578 100.17188,72.138327 L 99.914062,73.005515 L 92.320312,73.005515 z M 83.976562,55.872702 C 84.97655,56.013344 85.867174,56.083657 86.648438,56.08364 C 89.335921,56.083657 91.460918,55.337564 93.023438,53.845358 C 94.585915,52.353192 95.367165,50.497725 95.367188,48.278952 C 95.367165,46.544604 94.878884,45.21648 93.902344,44.294577 C 92.925761,43.372732 91.460918,42.911795 89.507812,42.911765 C 89.007796,42.911795 88.414046,42.974295 87.726562,43.099265 L 83.976562,55.872702 z M 115.80469,39.67739 L 109.21875,62.435202 C 112.06249,58.153967 114.28124,55.31022 115.875,53.903952 C 117.46873,52.497723 118.99217,51.794598 120.44531,51.794577 C 121.19529,51.794598 121.82029,52.052411 122.32031,52.568015 C 122.82029,53.08366 123.07029,53.771159 123.07031,54.630515 C 123.07029,55.661782 122.85154,56.911781 122.41406,58.380515 L 119.55469,68.200827 C 119.1953,69.388331 119.01561,70.04458 119.01562,70.169577 C 119.01561,70.38833 119.08201,70.568017 119.21484,70.70864 C 119.34764,70.849267 119.49998,70.919579 119.67188,70.919577 C 119.87498,70.919579 120.10936,70.818017 120.375,70.61489 C 121.26561,69.927393 122.14842,68.974269 123.02344,67.755515 L 123.75,68.200827 C 123.21873,69.028956 122.48045,69.939112 121.53516,70.931296 C 120.58982,71.923485 119.77733,72.610984 119.09766,72.993796 C 118.41795,73.376608 117.81248,73.568014 117.28125,73.568015 C 116.70311,73.568014 116.23045,73.384421 115.86328,73.017233 C 115.49608,72.650046 115.31249,72.177391 115.3125,71.599265 C 115.31249,70.911767 115.58592,69.630518 116.13281,67.755515 L 118.82812,58.380515 C 119.17186,57.208656 119.34373,56.286781 119.34375,55.61489 C 119.34373,55.302407 119.24608,55.052408 119.05078,54.86489 C 118.85545,54.677408 118.60155,54.583658 118.28906,54.58364 C 117.83592,54.583658 117.3203,54.755533 116.74219,55.099265 C 115.67967,55.755532 114.45311,56.974281 113.0625,58.755515 C 112.68749,59.239903 111.43749,61.193027 109.3125,64.61489 C 108.65624,65.708647 108.11718,66.903958 107.69531,68.200827 L 106.19531,73.005515 L 102.67969,73.005515 L 110.39062,46.193015 L 111.21094,43.286765 C 111.21093,42.880545 111.04296,42.52117 110.70703,42.20864 C 110.37109,41.896171 109.96093,41.739921 109.47656,41.73989 C 109.19531,41.739921 108.76562,41.786796 108.1875,41.880515 L 107.69531,41.950827 L 107.69531,41.036765 L 115.80469,39.67739 z M 147.91406,59.130515 C 147.91404,61.474276 147.29295,63.794586 146.05078,66.091452 C 144.80857,68.388332 143.07811,70.208643 140.85938,71.55239 C 138.64061,72.89614 136.48436,73.568014 134.39062,73.568015 C 132.24999,73.568014 130.5039,72.884421 129.15234,71.517233 C 127.80078,70.150049 127.125,68.380519 127.125,66.20864 C 127.125,63.911774 127.78515,61.607089 129.10547,59.294577 C 130.42578,56.982093 132.1914,55.15397 134.40234,53.810202 C 136.61327,52.466473 138.74999,51.794598 140.8125,51.794577 C 142.87498,51.794598 144.5742,52.474285 145.91016,53.83364 C 147.24607,55.193033 147.91404,56.958656 147.91406,59.130515 L 147.91406,59.130515 z M 144.02344,57.513327 C 144.02342,56.060219 143.66795,54.946939 142.95703,54.173483 C 142.24608,53.400066 141.32811,53.013347 140.20312,53.013327 C 137.90624,53.013347 135.79296,54.657877 133.86328,57.946921 C 131.93359,61.235995 130.96874,64.505523 130.96875,67.755515 C 130.96874,69.239893 131.34374,70.384424 132.09375,71.189108 C 132.84374,71.993797 133.78905,72.39614 134.92969,72.39614 C 137.1328,72.39614 139.19921,70.759423 141.12891,67.485983 C 143.05858,64.212555 144.02342,60.888339 144.02344,57.513327 L 144.02344,57.513327 z M 168.98438,41.224265 L 191.03906,41.224265 L 191.03906,42.091452 L 167.4375,71.482077 L 171.11719,71.482077 C 175.08592,71.482079 177.8867,71.286766 179.51953,70.89614 C 181.15232,70.505517 182.5117,69.82583 183.59766,68.857077 C 184.68357,67.888332 185.59373,66.513334 186.32812,64.732077 L 187.21875,64.732077 L 184.47656,73.005515 L 161.625,73.005515 L 161.625,72.325827 L 185.22656,42.935202 L 178.64062,42.935202 C 175.76561,42.935232 173.74218,43.064138 172.57031,43.321921 C 171.39843,43.579763 170.39452,44.1032 169.55859,44.892233 C 168.72265,45.681323 168.01562,46.872728 167.4375,48.466452 L 166.61719,48.466452 L 168.98438,41.224265 z M 194.15625,64.169577 C 194.04687,64.950835 193.99218,65.599272 193.99219,66.11489 C 193.99218,67.50552 194.48437,68.689113 195.46875,69.665671 C 196.45312,70.642236 197.64843,71.130517 199.05469,71.130515 C 200.17968,71.130517 201.26171,70.900048 202.30078,70.439108 C 203.33983,69.978174 204.8828,68.958644 206.92969,67.380515 L 207.42188,68.060202 C 203.71873,71.732078 200.18749,73.568014 196.82812,73.568015 C 194.54687,73.568014 192.82812,72.849265 191.67188,71.411765 C 190.51562,69.974268 189.9375,68.388332 189.9375,66.653952 C 189.9375,64.325836 190.65625,61.943026 192.09375,59.505515 C 193.53124,57.068031 195.33593,55.173501 197.50781,53.821921 C 199.67968,52.470379 201.91405,51.794598 204.21094,51.794577 C 205.86717,51.794598 207.09373,52.130536 207.89062,52.80239 C 208.68748,53.474284 209.08592,54.271158 209.08594,55.193015 C 209.08592,56.489906 208.57029,57.732092 207.53906,58.919577 C 206.17967,60.466465 204.17967,61.716463 201.53906,62.669577 C 199.78905,63.310212 197.32812,63.810211 194.15625,64.169577 L 194.15625,64.169577 z M 194.32031,63.02114 C 196.6328,62.755525 198.51561,62.3024 199.96875,61.661765 C 201.89061,60.802402 203.33202,59.775059 204.29297,58.579733 C 205.25389,57.384437 205.73436,56.247719 205.73438,55.169577 C 205.73436,54.513346 205.52733,53.982096 205.11328,53.575827 C 204.6992,53.169597 204.10936,52.966472 203.34375,52.966452 C 201.74999,52.966472 200.05858,53.814128 198.26953,55.509421 C 196.48046,57.204749 195.16406,59.708653 194.32031,63.02114 L 194.32031,63.02114 z M 222.1875,45.982077 L 220.35938,52.357077 L 224.03906,52.357077 L 223.64062,53.83364 L 219.98438,53.83364 L 215.95312,67.661765 C 215.51562,69.146144 215.29687,70.10708 215.29688,70.544577 C 215.29687,70.810204 215.35937,71.013329 215.48438,71.153952 C 215.60937,71.294579 215.75781,71.364891 215.92969,71.36489 C 216.32031,71.364891 216.83593,71.091454 217.47656,70.544577 C 217.85155,70.23208 218.68749,69.271143 219.98438,67.661765 L 220.75781,68.247702 C 219.3203,70.341455 217.96093,71.818016 216.67969,72.67739 C 215.80468,73.271139 214.92187,73.568014 214.03125,73.568015 C 213.34375,73.568014 212.78125,73.353171 212.34375,72.923483 C 211.90625,72.493796 211.6875,71.943016 211.6875,71.27114 C 211.6875,70.427392 211.9375,69.138331 212.4375,67.403952 L 216.35156,53.83364 L 212.8125,53.83364 L 213.04688,52.919577 C 214.76562,52.450848 216.19531,51.75163 217.33594,50.821921 C 218.47655,49.892257 219.74999,48.278977 221.15625,45.982077 L 222.1875,45.982077 z M 245.55469,51.794577 L 240.98438,67.685202 L 240.46875,69.818015 C 240.42186,70.021143 240.39842,70.193018 240.39844,70.33364 C 240.39842,70.583642 240.47655,70.802392 240.63281,70.98989 C 240.75779,71.130517 240.91404,71.200829 241.10156,71.200827 C 241.30467,71.200829 241.57029,71.075829 241.89844,70.825827 C 242.50779,70.372705 243.32029,69.435206 244.33594,68.013327 L 245.13281,68.575827 C 244.05467,70.20083 242.94529,71.43911 241.80469,72.290671 C 240.66404,73.142233 239.60936,73.568014 238.64062,73.568015 C 237.96874,73.568014 237.46483,73.400046 237.12891,73.064108 C 236.79295,72.728171 236.62499,72.23989 236.625,71.599265 C 236.62499,70.833642 236.79686,69.82583 237.14062,68.575827 L 237.63281,66.818015 C 235.58592,69.489893 233.70311,71.357079 231.98438,72.419577 C 230.74999,73.185202 229.53906,73.568014 228.35156,73.568015 C 227.21093,73.568014 226.22656,73.095358 225.39844,72.150046 C 224.57031,71.204735 224.15625,69.903955 224.15625,68.247702 C 224.15625,65.763334 224.90234,63.142243 226.39453,60.384421 C 227.88671,57.626624 229.78124,55.419595 232.07812,53.763327 C 233.87499,52.450848 235.5703,51.794598 237.16406,51.794577 C 238.11717,51.794598 238.91014,52.044598 239.54297,52.544577 C 240.17576,53.044597 240.65623,53.872721 240.98438,55.028952 L 241.82812,52.357077 L 245.55469,51.794577 z M 237.21094,53.013327 C 236.21092,53.013347 235.14843,53.482097 234.02344,54.419577 C 232.42968,55.747719 231.01171,57.716467 229.76953,60.325827 C 228.52734,62.935212 227.90625,65.294585 227.90625,67.403952 C 227.90625,68.466457 228.17187,69.3063 228.70312,69.923483 C 229.23437,70.540673 229.84374,70.849267 230.53125,70.849265 C 232.23437,70.849267 234.08593,69.591456 236.08594,67.075827 C 238.7578,63.732086 240.09373,60.302402 240.09375,56.786765 C 240.09373,55.458657 239.83592,54.497721 239.32031,53.903952 C 238.80467,53.310222 238.10155,53.013347 237.21094,53.013327 L 237.21094,53.013327 z M 281.03906,73.005515 L 257.48438,73.005515 L 257.8125,72.138327 C 259.0625,72.107078 259.89844,72.005516 260.32031,71.83364 C 260.97656,71.552391 261.46094,71.185204 261.77344,70.732077 C 262.25781,70.01333 262.77343,68.716456 263.32031,66.841452 L 268.92188,47.505515 C 269.39061,45.911792 269.62499,44.739918 269.625,43.98989 C 269.62499,43.396169 269.41015,42.935232 268.98047,42.607077 C 268.55077,42.278983 267.74218,42.114921 266.55469,42.11489 C 266.28906,42.114921 266.07812,42.107108 265.92188,42.091452 L 266.20312,41.224265 L 279.16406,41.224265 L 278.97656,42.091452 C 277.52342,42.091483 276.49217,42.232108 275.88281,42.513327 C 275.27342,42.794607 274.76561,43.255544 274.35938,43.89614 C 274.07811,44.318043 273.61717,45.630542 272.97656,47.83364 L 267.46875,66.841452 C 267.04687,68.278957 266.83593,69.278956 266.83594,69.841452 C 266.83593,70.216455 267.04687,70.57583 267.46875,70.919577 C 267.73437,71.153954 268.33593,71.271141 269.27344,71.27114 L 272.34375,71.27114 C 274.57811,71.271141 276.35155,70.989892 277.66406,70.42739 C 278.63279,70.005518 279.52342,69.372706 280.33594,68.528952 C 280.77342,68.060207 281.54685,66.896146 282.65625,65.036765 L 283.26562,63.982077 L 284.13281,63.982077 L 281.03906,73.005515 z M 296.48438,42.48989 C 297.14061,42.48992 297.6953,42.716482 298.14844,43.169577 C 298.60155,43.622732 298.82811,44.177419 298.82812,44.83364 C 298.82811,45.474292 298.59764,46.025073 298.13672,46.485983 C 297.67577,46.946947 297.12499,47.177416 296.48438,47.17739 C 295.84374,47.177416 295.29296,46.946947 294.83203,46.485983 C 294.37109,46.025073 294.14062,45.474292 294.14062,44.83364 C 294.14062,44.177419 294.36718,43.622732 294.82031,43.169577 C 295.27343,42.716482 295.82811,42.48992 296.48438,42.48989 L 296.48438,42.48989 z M 296.78906,51.794577 L 292.14844,68.224265 C 291.83593,69.333643 291.67968,69.997705 291.67969,70.216452 C 291.67968,70.466455 291.7539,70.66958 291.90234,70.825827 C 292.05077,70.982079 292.22656,71.060204 292.42969,71.060202 C 292.66406,71.060204 292.94531,70.935204 293.27344,70.685202 C 294.16405,69.98208 295.06249,68.982081 295.96875,67.685202 L 296.78906,68.224265 C 295.72655,69.849268 294.47655,71.216454 293.03906,72.325827 C 291.97656,73.153952 290.96093,73.568014 289.99219,73.568015 C 289.35156,73.568014 288.82812,73.376608 288.42188,72.993796 C 288.01562,72.610984 287.8125,72.130516 287.8125,71.55239 C 287.8125,70.974267 288.00781,70.01333 288.39844,68.669577 L 291.44531,58.169577 C 291.94531,56.450844 292.19531,55.37272 292.19531,54.935202 C 292.19531,54.591471 292.07421,54.310221 291.83203,54.091452 C 291.58984,53.872721 291.25781,53.763346 290.83594,53.763327 C 290.49218,53.763346 289.78125,53.849284 288.70312,54.02114 L 288.70312,53.107077 L 296.78906,51.794577 z M 309.46875,51.794577 L 306.42188,62.36489 C 307.78124,59.880528 308.93749,58.013342 309.89062,56.763327 C 311.37499,54.825845 312.8203,53.419597 314.22656,52.544577 C 315.05467,52.044598 315.92186,51.794598 316.82812,51.794577 C 317.60936,51.794598 318.25779,52.044598 318.77344,52.544577 C 319.28904,53.044597 319.54685,53.685222 319.54688,54.466452 C 319.54685,55.232095 319.36717,56.232094 319.00781,57.466452 L 317.34375,63.419577 C 319.8906,58.653967 322.30466,55.31022 324.58594,53.388327 C 325.85154,52.325848 327.10153,51.794598 328.33594,51.794577 C 329.05466,51.794598 329.6445,52.040692 330.10547,52.532858 C 330.56637,53.025066 330.79684,53.786784 330.79688,54.818015 C 330.79684,55.724282 330.65622,56.685219 330.375,57.700827 L 327.79688,66.818015 C 327.23435,68.802394 326.9531,69.903955 326.95312,70.122702 C 326.9531,70.341455 327.02341,70.528955 327.16406,70.685202 C 327.25778,70.794579 327.38278,70.849267 327.53906,70.849265 C 327.69528,70.849267 327.96872,70.70083 328.35938,70.403952 C 329.24997,69.716455 330.08591,68.810206 330.86719,67.685202 L 331.64062,68.17739 C 331.24997,68.802394 330.55856,69.661768 329.56641,70.755515 C 328.57419,71.849266 327.72653,72.591453 327.02344,72.982077 C 326.32029,73.372702 325.67185,73.568014 325.07812,73.568015 C 324.53122,73.568014 324.07419,73.380514 323.70703,73.005515 C 323.33982,72.630515 323.15623,72.169578 323.15625,71.622702 C 323.15623,70.872704 323.47654,69.364893 324.11719,67.099265 L 326.25,59.575827 C 326.73435,57.841467 326.99216,56.880531 327.02344,56.693015 C 327.07028,56.396156 327.09372,56.107094 327.09375,55.825827 C 327.09372,55.43522 327.00778,55.130533 326.83594,54.911765 C 326.64841,54.693033 326.43747,54.583658 326.20312,54.58364 C 325.54685,54.583658 324.85154,54.919595 324.11719,55.591452 C 321.96091,57.575843 319.94529,60.35709 318.07031,63.935202 C 316.83592,66.294584 315.67967,69.318018 314.60156,73.005515 L 311.0625,73.005515 L 315.07031,58.825827 C 315.5078,57.294593 315.72655,56.271156 315.72656,55.755515 C 315.72655,55.333657 315.64061,55.021158 315.46875,54.818015 C 315.29686,54.614908 315.08592,54.513346 314.83594,54.513327 C 314.3203,54.513346 313.77342,54.700846 313.19531,55.075827 C 312.2578,55.68522 311.05077,56.989906 309.57422,58.98989 C 308.09765,60.989902 306.95312,62.903962 306.14062,64.732077 C 305.74999,65.59146 304.82031,68.349269 303.35156,73.005515 L 299.88281,73.005515 L 304.21875,57.818015 L 304.78125,55.849265 C 304.89062,55.552407 304.94531,55.333657 304.94531,55.193015 C 304.94531,54.849283 304.78906,54.540689 304.47656,54.267233 C 304.16406,53.993815 303.76562,53.857096 303.28125,53.857077 C 303.07812,53.857096 302.51562,53.950846 301.59375,54.138327 L 301.38281,53.27114 L 309.46875,51.794577 z M 344.48438,42.48989 C 345.14061,42.48992 345.6953,42.716482 346.14844,43.169577 C 346.60155,43.622732 346.82811,44.177419 346.82812,44.83364 C 346.82811,45.474292 346.59764,46.025073 346.13672,46.485983 C 345.67577,46.946947 345.12499,47.177416 344.48438,47.17739 C 343.84374,47.177416 343.29296,46.946947 342.83203,46.485983 C 342.37109,46.025073 342.14062,45.474292 342.14062,44.83364 C 342.14062,44.177419 342.36718,43.622732 342.82031,43.169577 C 343.27343,42.716482 343.82811,42.48992 344.48438,42.48989 L 344.48438,42.48989 z M 344.78906,51.794577 L 340.14844,68.224265 C 339.83593,69.333643 339.67968,69.997705 339.67969,70.216452 C 339.67968,70.466455 339.7539,70.66958 339.90234,70.825827 C 340.05077,70.982079 340.22656,71.060204 340.42969,71.060202 C 340.66406,71.060204 340.94531,70.935204 341.27344,70.685202 C 342.16405,69.98208 343.06249,68.982081 343.96875,67.685202 L 344.78906,68.224265 C 343.72655,69.849268 342.47655,71.216454 341.03906,72.325827 C 339.97656,73.153952 338.96093,73.568014 337.99219,73.568015 C 337.35156,73.568014 336.82812,73.376608 336.42188,72.993796 C 336.01562,72.610984 335.8125,72.130516 335.8125,71.55239 C 335.8125,70.974267 336.00781,70.01333 336.39844,68.669577 L 339.44531,58.169577 C 339.94531,56.450844 340.19531,55.37272 340.19531,54.935202 C 340.19531,54.591471 340.07421,54.310221 339.83203,54.091452 C 339.58984,53.872721 339.25781,53.763346 338.83594,53.763327 C 338.49218,53.763346 337.78125,53.849284 336.70312,54.02114 L 336.70312,53.107077 L 344.78906,51.794577 z M 359.53125,45.982077 L 357.70312,52.357077 L 361.38281,52.357077 L 360.98438,53.83364 L 357.32812,53.83364 L 353.29688,67.661765 C 352.85937,69.146144 352.64062,70.10708 352.64062,70.544577 C 352.64062,70.810204 352.70312,71.013329 352.82812,71.153952 C 352.95312,71.294579 353.10156,71.364891 353.27344,71.36489 C 353.66406,71.364891 354.17968,71.091454 354.82031,70.544577 C 355.1953,70.23208 356.03124,69.271143 357.32812,67.661765 L 358.10156,68.247702 C 356.66405,70.341455 355.30468,71.818016 354.02344,72.67739 C 353.14843,73.271139 352.26562,73.568014 351.375,73.568015 C 350.6875,73.568014 350.125,73.353171 349.6875,72.923483 C 349.25,72.493796 349.03125,71.943016 349.03125,71.27114 C 349.03125,70.427392 349.28125,69.138331 349.78125,67.403952 L 353.69531,53.83364 L 350.15625,53.83364 L 350.39062,52.919577 C 352.10937,52.450848 353.53906,51.75163 354.67969,50.821921 C 355.8203,49.892257 357.09374,48.278977 358.5,45.982077 L 359.53125,45.982077 z M 366.09375,64.169577 C 365.98437,64.950835 365.92968,65.599272 365.92969,66.11489 C 365.92968,67.50552 366.42187,68.689113 367.40625,69.665671 C 368.39062,70.642236 369.58593,71.130517 370.99219,71.130515 C 372.11718,71.130517 373.19921,70.900048 374.23828,70.439108 C 375.27733,69.978174 376.8203,68.958644 378.86719,67.380515 L 379.35938,68.060202 C 375.65623,71.732078 372.12499,73.568014 368.76562,73.568015 C 366.48437,73.568014 364.76562,72.849265 363.60938,71.411765 C 362.45312,69.974268 361.875,68.388332 361.875,66.653952 C 361.875,64.325836 362.59375,61.943026 364.03125,59.505515 C 365.46874,57.068031 367.27343,55.173501 369.44531,53.821921 C 371.61718,52.470379 373.85155,51.794598 376.14844,51.794577 C 377.80467,51.794598 379.03123,52.130536 379.82812,52.80239 C 380.62498,53.474284 381.02342,54.271158 381.02344,55.193015 C 381.02342,56.489906 380.50779,57.732092 379.47656,58.919577 C 378.11717,60.466465 376.11717,61.716463 373.47656,62.669577 C 371.72655,63.310212 369.26562,63.810211 366.09375,64.169577 L 366.09375,64.169577 z M 366.25781,63.02114 C 368.5703,62.755525 370.45311,62.3024 371.90625,61.661765 C 373.82811,60.802402 375.26952,59.775059 376.23047,58.579733 C 377.19139,57.384437 377.67186,56.247719 377.67188,55.169577 C 377.67186,54.513346 377.46483,53.982096 377.05078,53.575827 C 376.6367,53.169597 376.04686,52.966472 375.28125,52.966452 C 373.68749,52.966472 371.99608,53.814128 370.20703,55.509421 C 368.41796,57.204749 367.10156,59.708653 366.25781,63.02114 L 366.25781,63.02114 z M 407.625,39.67739 L 399.5625,67.33364 C 399.12498,68.833644 398.90623,69.818018 398.90625,70.286765 C 398.90623,70.443017 398.97264,70.591455 399.10547,70.732077 C 399.23826,70.872704 399.37498,70.943017 399.51562,70.943015 C 399.71873,70.943017 399.96092,70.841454 400.24219,70.638327 C 400.77342,70.26333 401.66404,69.325831 402.91406,67.825827 L 403.71094,68.318015 C 402.58592,69.880518 401.4492,71.146142 400.30078,72.11489 C 399.15233,73.08364 398.07811,73.568014 397.07812,73.568015 C 396.54686,73.568014 396.10936,73.380514 395.76562,73.005515 C 395.42186,72.630515 395.24999,72.099266 395.25,71.411765 C 395.24999,70.521142 395.48436,69.325831 395.95312,67.825827 L 396.86719,64.919577 C 394.60155,68.419582 392.53905,70.841454 390.67969,72.185202 C 389.39843,73.107077 388.17187,73.568014 387,73.568015 C 385.8125,73.568014 384.77734,73.040671 383.89453,71.985983 C 383.01172,70.931298 382.57031,69.497706 382.57031,67.685202 C 382.57031,65.357085 383.3125,62.872712 384.79688,60.232077 C 386.28125,57.591468 388.24218,55.443032 390.67969,53.786765 C 392.60155,52.45866 394.36717,51.794598 395.97656,51.794577 C 396.8203,51.794598 397.54686,51.966473 398.15625,52.310202 C 398.76561,52.653973 399.36717,53.224284 399.96094,54.02114 L 402.25781,45.86489 C 402.42967,45.286792 402.57029,44.825855 402.67969,44.482077 C 402.86717,43.857106 402.96092,43.341482 402.96094,42.935202 C 402.96092,42.607108 402.84373,42.33367 402.60938,42.11489 C 402.28123,41.849296 401.85935,41.716483 401.34375,41.716452 C 400.98436,41.716483 400.39061,41.771171 399.5625,41.880515 L 399.5625,41.013327 L 407.625,39.67739 z M 398.92969,56.318015 C 398.92967,55.318032 398.64061,54.513346 398.0625,53.903952 C 397.48436,53.294597 396.74998,52.98991 395.85938,52.98989 C 393.89061,52.98991 391.83983,54.614908 389.70703,57.86489 C 387.57421,61.114902 386.50781,64.224273 386.50781,67.193015 C 386.50781,68.364894 386.76562,69.259425 387.28125,69.876608 C 387.79687,70.493798 388.41406,70.802392 389.13281,70.80239 C 390.7578,70.802392 392.79686,69.044581 395.25,65.528952 C 397.70311,62.013338 398.92967,58.943029 398.92969,56.318015 L 398.92969,56.318015 z"
     id="flowRoot3252" />
  <path
     transform="translate(-41.178571,-7.4870125)"
     style="font-size:40px;font-style:normal;font-weight:normal;fill:#ebe5e5;fill-opacity:1;stroke:none;stroke-width:1px;stroke-linecap:butt;stroke-linejoin:miter;stroke-opacity:1;font-family:Bitstream Vera Sans"
     d="M 95.390625,160.66122 L 98.964844,160.34872 C 99.134109,161.78102 99.527989,162.95615 100.14648,163.87411 C 100.76497,164.79208 101.72525,165.53427 103.02734,166.10067 C 104.32942,166.66708 105.79426,166.95029 107.42188,166.95028 C 108.86717,166.95029 110.14321,166.73544 111.25,166.30575 C 112.35675,165.87607 113.18032,165.28688 113.7207,164.53817 C 114.26105,163.78948 114.53123,162.97243 114.53125,162.087 C 114.53123,161.18857 114.27081,160.40407 113.75,159.73349 C 113.22915,159.06292 112.36977,158.49977 111.17188,158.04403 C 110.40363,157.74457 108.70441,157.27907 106.07422,156.64755 C 103.444,156.01605 101.60155,155.42035 100.54688,154.86044 C 99.179682,154.14431 98.160803,153.25564 97.490234,152.19442 C 96.819658,151.13324 96.484372,149.94509 96.484375,148.62997 C 96.484372,147.18468 96.894528,145.83377 97.714844,144.57724 C 98.535151,143.32075 99.733067,142.36698 101.30859,141.71591 C 102.88411,141.06489 104.63541,140.73937 106.5625,140.73935 C 108.68488,140.73937 110.55662,141.08117 112.17773,141.76474 C 113.79881,142.44836 115.04555,143.45422 115.91797,144.78231 C 116.79034,146.11046 117.25909,147.61437 117.32422,149.29403 L 113.69141,149.56747 C 113.49607,147.7576 112.83527,146.39041 111.70898,145.46591 C 110.58267,144.54145 108.91926,144.07921 106.71875,144.07919 C 104.42707,144.07921 102.75715,144.49914 101.70898,145.33895 C 100.6608,146.17882 100.13671,147.19119 100.13672,148.37606 C 100.13671,149.40473 100.50781,150.25108 101.25,150.91513 C 101.97916,151.57921 103.88345,152.25955 106.96289,152.95614 C 110.0423,153.65277 112.15493,154.2615 113.30078,154.78231 C 114.96743,155.55056 116.19789,156.52386 116.99219,157.70224 C 117.78643,158.88063 118.18357,160.23805 118.18359,161.7745 C 118.18357,163.29795 117.74737,164.73349 116.875,166.08114 C 116.00258,167.4288 114.74933,168.47698 113.11523,169.22567 C 111.4811,169.97437 109.64191,170.34872 107.59766,170.34872 C 105.0065,170.34872 102.83528,169.97112 101.08398,169.21591 C 99.332677,168.4607 97.95898,167.32463 96.962891,165.8077 C 95.966795,164.29078 95.442706,162.57529 95.390625,160.66122 L 95.390625,160.66122 z M 122.94922,169.86044 L 122.94922,149.11825 L 126.09375,149.11825 L 126.09375,152.02841 C 126.74479,151.0128 127.61067,150.19575 128.69141,149.57724 C 129.77213,148.95877 131.00259,148.64952 132.38281,148.6495 C 133.91926,148.64952 135.17902,148.96853 136.16211,149.60653 C 137.14517,150.24457 137.83852,151.1365 138.24219,152.28231 C 139.88279,149.86046 142.01821,148.64952 144.64844,148.6495 C 146.7057,148.64952 148.28773,149.21918 149.39453,150.35849 C 150.50127,151.49783 151.05466,153.25238 151.05469,155.62216 L 151.05469,169.86044 L 147.55859,169.86044 L 147.55859,156.79403 C 147.55857,155.3878 147.44463,154.37543 147.2168,153.75692 C 146.98891,153.13845 146.57549,152.6404 145.97656,152.26278 C 145.37758,151.8852 144.67445,151.69639 143.86719,151.69638 C 142.40883,151.69639 141.1979,152.18142 140.23438,153.15145 C 139.27081,154.12152 138.78904,155.67426 138.78906,157.80966 L 138.78906,169.86044 L 135.27344,169.86044 L 135.27344,156.38388 C 135.27342,154.82139 134.98696,153.64952 134.41406,152.86825 C 133.84113,152.08702 132.90363,151.69639 131.60156,151.69638 C 130.61197,151.69639 129.69726,151.95681 128.85742,152.47763 C 128.01757,152.99848 127.40885,153.76019 127.03125,154.76278 C 126.65364,155.7654 126.46484,157.21071 126.46484,159.09872 L 126.46484,169.86044 L 122.94922,169.86044 z M 169.84375,167.30185 C 168.54165,168.40862 167.2884,169.18987 166.08398,169.6456 C 164.87955,170.10132 163.58723,170.32919 162.20703,170.32919 C 159.92838,170.32919 158.17708,169.77255 156.95312,168.65927 C 155.72916,167.54599 155.11719,166.12346 155.11719,164.39169 C 155.11719,163.37607 155.34831,162.44834 155.81055,161.60849 C 156.27278,160.76865 156.87825,160.09482 157.62695,159.587 C 158.37565,159.0792 159.21874,158.69509 160.15625,158.43466 C 160.84635,158.25238 161.88801,158.0766 163.28125,157.90731 C 166.11978,157.56878 168.20962,157.16514 169.55078,156.69638 C 169.56379,156.21462 169.5703,155.90863 169.57031,155.77841 C 169.5703,154.34613 169.23827,153.33702 168.57422,152.75106 C 167.67577,151.95681 166.34113,151.55968 164.57031,151.55966 C 162.91666,151.55968 161.69596,151.84939 160.9082,152.4288 C 160.12044,153.00824 159.53775,154.03363 159.16016,155.50497 L 155.72266,155.03622 C 156.03515,153.56488 156.54948,152.37673 157.26562,151.47177 C 157.98177,150.56684 159.01692,149.87022 160.37109,149.38192 C 161.72525,148.89366 163.29426,148.64952 165.07812,148.6495 C 166.84895,148.64952 168.28775,148.85786 169.39453,149.2745 C 170.50129,149.69119 171.31509,150.21528 171.83594,150.84677 C 172.35675,151.4783 172.72134,152.27582 172.92969,153.23935 C 173.04686,153.83832 173.10545,154.91905 173.10547,156.48153 L 173.10547,161.16903 C 173.10545,164.43727 173.18032,166.50432 173.33008,167.3702 C 173.4798,168.23609 173.77602,169.06617 174.21875,169.86044 L 170.54688,169.86044 C 170.18228,169.13127 169.9479,168.27841 169.84375,167.30185 L 169.84375,167.30185 z M 169.55078,159.45028 C 168.27472,159.97113 166.36066,160.41383 163.80859,160.77841 C 162.36327,160.98675 161.34114,161.22112 160.74219,161.48153 C 160.14322,161.74196 159.68098,162.12282 159.35547,162.62411 C 159.02994,163.12542 158.86718,163.68206 158.86719,164.29403 C 158.86718,165.23154 159.222,166.01279 159.93164,166.63778 C 160.64127,167.26279 161.67968,167.57529 163.04688,167.57528 C 164.40103,167.57529 165.60546,167.27906 166.66016,166.68661 C 167.71483,166.09417 168.48957,165.28362 168.98438,164.25497 C 169.36196,163.46071 169.55077,162.28883 169.55078,160.73935 L 169.55078,159.45028 z M 178.53516,169.86044 L 178.53516,149.11825 L 181.69922,149.11825 L 181.69922,152.26278 C 182.5065,150.79145 183.25195,149.8214 183.93555,149.35263 C 184.61913,148.8839 185.37108,148.64952 186.19141,148.6495 C 187.37629,148.64952 188.58072,149.02713 189.80469,149.78231 L 188.59375,153.04403 C 187.73436,152.53624 186.87499,152.28233 186.01562,152.28231 C 185.24739,152.28233 184.55728,152.51345 183.94531,152.97567 C 183.33333,153.43793 182.89713,154.0792 182.63672,154.8995 C 182.24609,156.14952 182.05078,157.5167 182.05078,159.00106 L 182.05078,169.86044 L 178.53516,169.86044 z M 199.60938,166.71591 L 200.11719,169.82138 C 199.12759,170.02971 198.24218,170.13388 197.46094,170.13388 C 196.18489,170.13388 195.19531,169.93205 194.49219,169.52841 C 193.78906,169.12476 193.29427,168.59416 193.00781,167.93661 C 192.72135,167.27906 192.57812,165.8956 192.57812,163.78622 L 192.57812,151.85263 L 190,151.85263 L 190,149.11825 L 192.57812,149.11825 L 192.57812,143.98153 L 196.07422,141.87216 L 196.07422,149.11825 L 199.60938,149.11825 L 199.60938,151.85263 L 196.07422,151.85263 L 196.07422,163.98153 C 196.07421,164.98414 196.13606,165.62867 196.25977,165.91513 C 196.38346,166.20159 196.58528,166.42945 196.86523,166.59872 C 197.14517,166.76799 197.54556,166.85263 198.06641,166.85263 C 198.45702,166.85263 198.97134,166.80706 199.60938,166.71591 L 199.60938,166.71591 z M 203.02734,177.80966 L 203.02734,149.11825 L 206.23047,149.11825 L 206.23047,151.81356 C 206.98567,150.7589 207.83853,149.96788 208.78906,149.44052 C 209.73957,148.91319 210.89192,148.64952 212.24609,148.6495 C 214.01691,148.64952 215.57941,149.10525 216.93359,150.01669 C 218.28774,150.92817 219.30988,152.21397 220,153.87411 C 220.69008,155.53428 221.03514,157.35394 221.03516,159.3331 C 221.03514,161.4555 220.65428,163.3663 219.89258,165.06552 C 219.13084,166.76474 218.02407,168.06682 216.57227,168.97177 C 215.12043,169.87672 213.59374,170.32919 211.99219,170.32919 C 210.8203,170.32919 209.76887,170.08179 208.83789,169.587 C 207.90689,169.09221 207.14192,168.46721 206.54297,167.712 L 206.54297,177.80966 L 203.02734,177.80966 z M 206.21094,159.60653 C 206.21093,162.27581 206.7513,164.24847 207.83203,165.5245 C 208.91275,166.80055 210.22134,167.43857 211.75781,167.43856 C 213.3203,167.43857 214.65819,166.77776 215.77148,165.45614 C 216.88475,164.13453 217.44139,162.08701 217.44141,159.31356 C 217.44139,156.67035 216.89777,154.69118 215.81055,153.37606 C 214.72329,152.06098 213.42447,151.40343 211.91406,151.40341 C 210.41666,151.40343 209.09179,152.1033 207.93945,153.50302 C 206.7871,154.90277 206.21093,156.93727 206.21094,159.60653 L 206.21094,159.60653 z M 225.29297,169.86044 L 225.29297,141.22763 L 228.80859,141.22763 L 228.80859,151.50106 C 230.44921,149.60004 232.51952,148.64952 235.01953,148.6495 C 236.55598,148.64952 237.89061,148.95226 239.02344,149.5577 C 240.15623,150.16319 240.96678,150.99978 241.45508,152.06747 C 241.94334,153.1352 242.18748,154.68467 242.1875,156.71591 L 242.1875,169.86044 L 238.67188,169.86044 L 238.67188,156.71591 C 238.67186,154.95811 238.291,153.67881 237.5293,152.87802 C 236.76756,152.07725 235.69009,151.67686 234.29688,151.67685 C 233.2552,151.67686 232.27538,151.94705 231.35742,152.48739 C 230.43945,153.02777 229.78515,153.76019 229.39453,154.68466 C 229.0039,155.60915 228.80859,156.88519 228.80859,158.51278 L 228.80859,169.86044 L 225.29297,169.86044 z M 246.25,159.48935 C 246.25,155.64821 247.31771,152.80316 249.45312,150.95419 C 251.23697,149.41775 253.41145,148.64952 255.97656,148.6495 C 258.82811,148.64952 261.15884,149.58377 262.96875,151.45224 C 264.77863,153.32074 265.68357,155.90212 265.68359,159.19638 C 265.68357,161.86566 265.28318,163.96526 264.48242,165.4952 C 263.68162,167.02516 262.51626,168.21331 260.98633,169.05966 C 259.45637,169.90601 257.78645,170.32919 255.97656,170.32919 C 253.07291,170.32919 250.72591,169.3982 248.93555,167.53622 C 247.14518,165.67425 246.25,162.99196 246.25,159.48935 L 246.25,159.48935 z M 249.86328,159.48935 C 249.86328,162.1456 250.4427,164.13453 251.60156,165.45614 C 252.76041,166.77776 254.21874,167.43857 255.97656,167.43856 C 257.72134,167.43857 259.17316,166.7745 260.33203,165.44638 C 261.49087,164.11826 262.0703,162.09352 262.07031,159.37216 C 262.0703,156.80707 261.48761,154.86371 260.32227,153.54208 C 259.15689,152.22048 257.70832,151.55968 255.97656,151.55966 C 254.21874,151.55968 252.76041,152.21723 251.60156,153.53231 C 250.4427,154.84743 249.86328,156.83311 249.86328,159.48935 L 249.86328,159.48935 z M 269.82422,169.86044 L 269.82422,149.11825 L 272.98828,149.11825 L 272.98828,152.06747 C 274.51171,149.78884 276.71223,148.64952 279.58984,148.6495 C 280.83983,148.64952 281.98892,148.87413 283.03711,149.32333 C 284.08527,149.77257 284.86977,150.36176 285.39062,151.09091 C 285.91144,151.82009 286.27602,152.68598 286.48438,153.68856 C 286.61456,154.33962 286.67967,155.47894 286.67969,157.10653 L 286.67969,169.86044 L 283.16406,169.86044 L 283.16406,157.24325 C 283.16405,155.81097 283.02733,154.74001 282.75391,154.03036 C 282.48045,153.32074 281.99543,152.75434 281.29883,152.33114 C 280.6022,151.90798 279.78514,151.69639 278.84766,151.69638 C 277.35025,151.69639 276.05793,152.17165 274.9707,153.12216 C 273.88346,154.07269 273.33984,155.87608 273.33984,158.53231 L 273.33984,169.86044 L 269.82422,169.86044 z M 306.28906,163.18075 L 309.92188,163.62997 C 309.34894,165.75237 308.28774,167.3995 306.73828,168.57138 C 305.18879,169.74325 303.20962,170.32919 300.80078,170.32919 C 297.76692,170.32919 295.36132,169.39494 293.58398,167.52645 C 291.80664,165.65797 290.91797,163.03753 290.91797,159.66513 C 290.91797,156.17556 291.8164,153.46723 293.61328,151.54013 C 295.41015,149.61306 297.74088,148.64952 300.60547,148.6495 C 303.37889,148.64952 305.64452,149.59353 307.40234,151.48153 C 309.16014,153.36957 310.03904,156.02582 310.03906,159.45028 C 310.03904,159.65863 310.03253,159.97113 310.01953,160.38778 L 294.55078,160.38778 C 294.68098,162.66644 295.32551,164.41123 296.48438,165.62216 C 297.64322,166.8331 299.08853,167.43857 300.82031,167.43856 C 302.10936,167.43857 303.20962,167.10003 304.12109,166.42294 C 305.03254,165.74586 305.75519,164.66513 306.28906,163.18075 L 306.28906,163.18075 z M 294.74609,157.49716 L 306.32812,157.49716 C 306.17186,155.75238 305.72915,154.44379 305,153.57138 C 303.88019,152.21723 302.42837,151.54014 300.64453,151.54013 C 299.02994,151.54014 297.67252,152.08051 296.57227,153.16122 C 295.472,154.24197 294.86328,155.68728 294.74609,157.49716 L 294.74609,157.49716 z M 324.60938,160.66122 L 328.18359,160.34872 C 328.35286,161.78102 328.74674,162.95615 329.36523,163.87411 C 329.98372,164.79208 330.944,165.53427 332.24609,166.10067 C 333.54817,166.66708 335.01301,166.95029 336.64062,166.95028 C 338.08592,166.95029 339.36196,166.73544 340.46875,166.30575 C 341.5755,165.87607 342.39907,165.28688 342.93945,164.53817 C 343.4798,163.78948 343.74998,162.97243 343.75,162.087 C 343.74998,161.18857 343.48956,160.40407 342.96875,159.73349 C 342.4479,159.06292 341.58852,158.49977 340.39062,158.04403 C 339.62238,157.74457 337.92316,157.27907 335.29297,156.64755 C 332.66275,156.01605 330.8203,155.42035 329.76562,154.86044 C 328.39843,154.14431 327.37955,153.25564 326.70898,152.19442 C 326.03841,151.13324 325.70312,149.94509 325.70312,148.62997 C 325.70312,147.18468 326.11328,145.83377 326.93359,144.57724 C 327.7539,143.32075 328.95182,142.36698 330.52734,141.71591 C 332.10286,141.06489 333.85416,140.73937 335.78125,140.73935 C 337.90363,140.73937 339.77537,141.08117 341.39648,141.76474 C 343.01756,142.44836 344.2643,143.45422 345.13672,144.78231 C 346.00909,146.11046 346.47784,147.61437 346.54297,149.29403 L 342.91016,149.56747 C 342.71482,147.7576 342.05402,146.39041 340.92773,145.46591 C 339.80142,144.54145 338.13801,144.07921 335.9375,144.07919 C 333.64582,144.07921 331.9759,144.49914 330.92773,145.33895 C 329.87955,146.17882 329.35546,147.19119 329.35547,148.37606 C 329.35546,149.40473 329.72656,150.25108 330.46875,150.91513 C 331.19791,151.57921 333.1022,152.25955 336.18164,152.95614 C 339.26105,153.65277 341.37368,154.2615 342.51953,154.78231 C 344.18618,155.55056 345.41664,156.52386 346.21094,157.70224 C 347.00518,158.88063 347.40232,160.23805 347.40234,161.7745 C 347.40232,163.29795 346.96612,164.73349 346.09375,166.08114 C 345.22133,167.4288 343.96808,168.47698 342.33398,169.22567 C 340.69985,169.97437 338.86066,170.34872 336.81641,170.34872 C 334.22525,170.34872 332.05403,169.97112 330.30273,169.21591 C 328.55143,168.4607 327.17773,167.32463 326.18164,165.8077 C 325.18554,164.29078 324.66146,162.57529 324.60938,160.66122 L 324.60938,160.66122 z M 366.36719,163.18075 L 370,163.62997 C 369.42706,165.75237 368.36587,167.3995 366.81641,168.57138 C 365.26691,169.74325 363.28775,170.32919 360.87891,170.32919 C 357.84504,170.32919 355.43945,169.39494 353.66211,167.52645 C 351.88476,165.65797 350.99609,163.03753 350.99609,159.66513 C 350.99609,156.17556 351.89453,153.46723 353.69141,151.54013 C 355.48828,149.61306 357.819,148.64952 360.68359,148.6495 C 363.45702,148.64952 365.72264,149.59353 367.48047,151.48153 C 369.23826,153.36957 370.11717,156.02582 370.11719,159.45028 C 370.11717,159.65863 370.11066,159.97113 370.09766,160.38778 L 354.62891,160.38778 C 354.75911,162.66644 355.40364,164.41123 356.5625,165.62216 C 357.72135,166.8331 359.16666,167.43857 360.89844,167.43856 C 362.18749,167.43857 363.28775,167.10003 364.19922,166.42294 C 365.11066,165.74586 365.83332,164.66513 366.36719,163.18075 L 366.36719,163.18075 z M 354.82422,157.49716 L 366.40625,157.49716 C 366.24998,155.75238 365.80728,154.44379 365.07812,153.57138 C 363.95832,152.21723 362.5065,151.54014 360.72266,151.54013 C 359.10806,151.54014 357.75064,152.08051 356.65039,153.16122 C 355.55012,154.24197 354.9414,155.68728 354.82422,157.49716 L 354.82422,157.49716 z M 387.96875,162.26278 L 391.42578,162.712 C 391.04816,165.09482 390.08136,166.96005 388.52539,168.3077 C 386.96939,169.65536 385.05858,170.32919 382.79297,170.32919 C 379.95442,170.32919 377.67252,169.40146 375.94727,167.54599 C 374.222,165.69052 373.35937,163.03102 373.35938,159.56747 C 373.35937,157.3279 373.73047,155.36827 374.47266,153.68856 C 375.21484,152.00889 376.3444,150.74913 377.86133,149.90927 C 379.37825,149.06944 381.02864,148.64952 382.8125,148.6495 C 385.06509,148.64952 386.90754,149.21918 388.33984,150.35849 C 389.77212,151.49783 390.69009,153.11566 391.09375,155.212 L 387.67578,155.73935 C 387.35024,154.34613 386.77407,153.29796 385.94727,152.59481 C 385.12043,151.89171 384.12108,151.54014 382.94922,151.54013 C 381.17838,151.54014 379.73958,152.17491 378.63281,153.44442 C 377.52604,154.71397 376.97265,156.72243 376.97266,159.46981 C 376.97265,162.25628 377.5065,164.28102 378.57422,165.54403 C 379.64192,166.80706 381.03515,167.43857 382.75391,167.43856 C 384.1341,167.43857 385.28644,167.01539 386.21094,166.16903 C 387.1354,165.32268 387.72134,164.0206 387.96875,162.26278 L 387.96875,162.26278 z M 408.02734,169.86044 L 408.02734,166.81356 C 406.41275,169.15731 404.21874,170.32919 401.44531,170.32919 C 400.22135,170.32919 399.07877,170.09481 398.01758,169.62606 C 396.95638,169.15731 396.16862,168.56812 395.6543,167.85849 C 395.13997,167.14885 394.77864,166.27971 394.57031,165.25106 C 394.42708,164.56097 394.35547,163.46722 394.35547,161.96981 L 394.35547,149.11825 L 397.87109,149.11825 L 397.87109,160.62216 C 397.87109,162.4581 397.9427,163.69508 398.08594,164.3331 C 398.30729,165.25758 398.77603,165.98349 399.49219,166.51083 C 400.20832,167.03818 401.09374,167.30185 402.14844,167.30185 C 403.20311,167.30185 404.1927,167.03167 405.11719,166.4913 C 406.04165,165.95094 406.69595,165.21526 407.08008,164.28427 C 407.46418,163.35328 407.65623,162.00237 407.65625,160.23153 L 407.65625,149.11825 L 411.17188,149.11825 L 411.17188,169.86044 L 408.02734,169.86044 z M 416.66016,169.86044 L 416.66016,149.11825 L 419.82422,149.11825 L 419.82422,152.26278 C 420.6315,150.79145 421.37695,149.8214 422.06055,149.35263 C 422.74413,148.8839 423.49608,148.64952 424.31641,148.6495 C 425.50129,148.64952 426.70572,149.02713 427.92969,149.78231 L 426.71875,153.04403 C 425.85936,152.53624 424.99999,152.28233 424.14062,152.28231 C 423.37239,152.28233 422.68228,152.51345 422.07031,152.97567 C 421.45833,153.43793 421.02213,154.0792 420.76172,154.8995 C 420.37109,156.14952 420.17578,157.5167 420.17578,159.00106 L 420.17578,169.86044 L 416.66016,169.86044 z M 430.07812,145.2706 L 430.07812,141.22763 L 433.59375,141.22763 L 433.59375,145.2706 L 430.07812,145.2706 z M 430.07812,169.86044 L 430.07812,149.11825 L 433.59375,149.11825 L 433.59375,169.86044 L 430.07812,169.86044 z M 446.64062,166.71591 L 447.14844,169.82138 C 446.15884,170.02971 445.27343,170.13388 444.49219,170.13388 C 443.21614,170.13388 442.22656,169.93205 441.52344,169.52841 C 440.82031,169.12476 440.32552,168.59416 440.03906,167.93661 C 439.7526,167.27906 439.60937,165.8956 439.60938,163.78622 L 439.60938,151.85263 L 437.03125,151.85263 L 437.03125,149.11825 L 439.60938,149.11825 L 439.60938,143.98153 L 443.10547,141.87216 L 443.10547,149.11825 L 446.64062,149.11825 L 446.64062,151.85263 L 443.10547,151.85263 L 443.10547,163.98153 C 443.10546,164.98414 443.16731,165.62867 443.29102,165.91513 C 443.41471,166.20159 443.61653,166.42945 443.89648,166.59872 C 444.17642,166.76799 444.57681,166.85263 445.09766,166.85263 C 445.48827,166.85263 446.00259,166.80706 446.64062,166.71591 L 446.64062,166.71591 z M 449.90234,177.84872 L 449.51172,174.54794 C 450.27995,174.75627 450.95052,174.86043 451.52344,174.86044 C 452.30468,174.86043 452.92968,174.73023 453.39844,174.46981 C 453.86718,174.20939 454.2513,173.84481 454.55078,173.37606 C 454.77213,173.0245 455.1302,172.1521 455.625,170.75888 C 455.6901,170.56356 455.79426,170.27711 455.9375,169.8995 L 448.06641,149.11825 L 451.85547,149.11825 L 456.17188,161.12997 C 456.73176,162.65342 457.23306,164.25498 457.67578,165.93466 C 458.07942,164.32008 458.56119,162.74456 459.12109,161.2081 L 463.55469,149.11825 L 467.07031,149.11825 L 459.17969,170.212 C 458.33332,172.49064 457.67577,174.05965 457.20703,174.91903 C 456.58202,176.07788 455.86588,176.92749 455.05859,177.46786 C 454.2513,178.00822 453.28775,178.2784 452.16797,178.27841 C 451.49088,178.2784 450.73567,178.13517 449.90234,177.84872 L 449.90234,177.84872 z M 491.40625,160.66122 L 494.98047,160.34872 C 495.14973,161.78102 495.54361,162.95615 496.16211,163.87411 C 496.78059,164.79208 497.74088,165.53427 499.04297,166.10067 C 500.34504,166.66708 501.80988,166.95029 503.4375,166.95028 C 504.8828,166.95029 506.15884,166.73544 507.26562,166.30575 C 508.37238,165.87607 509.19594,165.28688 509.73633,164.53817 C 510.27667,163.78948 510.54685,162.97243 510.54688,162.087 C 510.54685,161.18857 510.28644,160.40407 509.76562,159.73349 C 509.24477,159.06292 508.3854,158.49977 507.1875,158.04403 C 506.41925,157.74457 504.72004,157.27907 502.08984,156.64755 C 499.45963,156.01605 497.61718,155.42035 496.5625,154.86044 C 495.19531,154.14431 494.17643,153.25564 493.50586,152.19442 C 492.83528,151.13324 492.5,149.94509 492.5,148.62997 C 492.5,147.18468 492.91015,145.83377 493.73047,144.57724 C 494.55078,143.32075 495.74869,142.36698 497.32422,141.71591 C 498.89973,141.06489 500.65103,140.73937 502.57812,140.73935 C 504.70051,140.73937 506.57225,141.08117 508.19336,141.76474 C 509.81443,142.44836 511.06118,143.45422 511.93359,144.78231 C 512.80597,146.11046 513.27472,147.61437 513.33984,149.29403 L 509.70703,149.56747 C 509.5117,147.7576 508.85089,146.39041 507.72461,145.46591 C 506.59829,144.54145 504.93488,144.07921 502.73438,144.07919 C 500.4427,144.07921 498.77278,144.49914 497.72461,145.33895 C 496.67643,146.17882 496.15234,147.19119 496.15234,148.37606 C 496.15234,149.40473 496.52343,150.25108 497.26562,150.91513 C 497.99478,151.57921 499.89908,152.25955 502.97852,152.95614 C 506.05793,153.65277 508.17055,154.2615 509.31641,154.78231 C 510.98305,155.55056 512.21352,156.52386 513.00781,157.70224 C 513.80206,158.88063 514.19919,160.23805 514.19922,161.7745 C 514.19919,163.29795 513.763,164.73349 512.89062,166.08114 C 512.01821,167.4288 510.76495,168.47698 509.13086,169.22567 C 507.49673,169.97437 505.65754,170.34872 503.61328,170.34872 C 501.02212,170.34872 498.8509,169.97112 497.09961,169.21591 C 495.3483,168.4607 493.97461,167.32463 492.97852,165.8077 C 491.98242,164.29078 491.45833,162.57529 491.40625,160.66122 L 491.40625,160.66122 z M 533.16406,163.18075 L 536.79688,163.62997 C 536.22394,165.75237 535.16274,167.3995 533.61328,168.57138 C 532.06379,169.74325 530.08462,170.32919 527.67578,170.32919 C 524.64192,170.32919 522.23632,169.39494 520.45898,167.52645 C 518.68164,165.65797 517.79297,163.03753 517.79297,159.66513 C 517.79297,156.17556 518.6914,153.46723 520.48828,151.54013 C 522.28515,149.61306 524.61588,148.64952 527.48047,148.6495 C 530.25389,148.64952 532.51952,149.59353 534.27734,151.48153 C 536.03514,153.36957 536.91404,156.02582 536.91406,159.45028 C 536.91404,159.65863 536.90753,159.97113 536.89453,160.38778 L 521.42578,160.38778 C 521.55598,162.66644 522.20051,164.41123 523.35938,165.62216 C 524.51822,166.8331 525.96353,167.43857 527.69531,167.43856 C 528.98436,167.43857 530.08462,167.10003 530.99609,166.42294 C 531.90754,165.74586 532.63019,164.66513 533.16406,163.18075 L 533.16406,163.18075 z M 521.62109,157.49716 L 533.20312,157.49716 C 533.04686,155.75238 532.60415,154.44379 531.875,153.57138 C 530.75519,152.21723 529.30337,151.54014 527.51953,151.54013 C 525.90494,151.54014 524.54752,152.08051 523.44727,153.16122 C 522.347,154.24197 521.73828,155.68728 521.62109,157.49716 L 521.62109,157.49716 z M 541.19141,169.86044 L 541.19141,149.11825 L 544.35547,149.11825 L 544.35547,152.26278 C 545.16275,150.79145 545.9082,149.8214 546.5918,149.35263 C 547.27538,148.8839 548.02733,148.64952 548.84766,148.6495 C 550.03254,148.64952 551.23697,149.02713 552.46094,149.78231 L 551.25,153.04403 C 550.39061,152.53624 549.53124,152.28233 548.67188,152.28231 C 547.90364,152.28233 547.21353,152.51345 546.60156,152.97567 C 545.98958,153.43793 545.55338,154.0792 545.29297,154.8995 C 544.90234,156.14952 544.70703,157.5167 544.70703,159.00106 L 544.70703,169.86044 L 541.19141,169.86044 z M 560.35156,169.86044 L 552.46094,149.11825 L 556.17188,149.11825 L 560.625,161.54013 C 561.10676,162.88128 561.54947,164.27451 561.95312,165.71981 C 562.26561,164.62607 562.70181,163.31097 563.26172,161.7745 L 567.87109,149.11825 L 571.48438,149.11825 L 563.63281,169.86044 L 560.35156,169.86044 z M 574.60938,145.2706 L 574.60938,141.22763 L 578.125,141.22763 L 578.125,145.2706 L 574.60938,145.2706 z M 574.60938,169.86044 L 574.60938,149.11825 L 578.125,149.11825 L 578.125,169.86044 L 574.60938,169.86044 z M 597.03125,162.26278 L 600.48828,162.712 C 600.11066,165.09482 599.14386,166.96005 597.58789,168.3077 C 596.03189,169.65536 594.12108,170.32919 591.85547,170.32919 C 589.01692,170.32919 586.73502,169.40146 585.00977,167.54599 C 583.2845,165.69052 582.42187,163.03102 582.42188,159.56747 C 582.42187,157.3279 582.79297,155.36827 583.53516,153.68856 C 584.27734,152.00889 585.4069,150.74913 586.92383,149.90927 C 588.44075,149.06944 590.09114,148.64952 591.875,148.6495 C 594.12759,148.64952 595.97004,149.21918 597.40234,150.35849 C 598.83462,151.49783 599.75259,153.11566 600.15625,155.212 L 596.73828,155.73935 C 596.41274,154.34613 595.83657,153.29796 595.00977,152.59481 C 594.18293,151.89171 593.18358,151.54014 592.01172,151.54013 C 590.24088,151.54014 588.80208,152.17491 587.69531,153.44442 C 586.58854,154.71397 586.03515,156.72243 586.03516,159.46981 C 586.03515,162.25628 586.569,164.28102 587.63672,165.54403 C 588.70442,166.80706 590.09765,167.43857 591.81641,167.43856 C 593.1966,167.43857 594.34894,167.01539 595.27344,166.16903 C 596.1979,165.32268 596.78384,164.0206 597.03125,162.26278 L 597.03125,162.26278 z M 617.69531,163.18075 L 621.32812,163.62997 C 620.75519,165.75237 619.69399,167.3995 618.14453,168.57138 C 616.59504,169.74325 614.61587,170.32919 612.20703,170.32919 C 609.17317,170.32919 606.76757,169.39494 604.99023,167.52645 C 603.21289,165.65797 602.32422,163.03753 602.32422,159.66513 C 602.32422,156.17556 603.22265,153.46723 605.01953,151.54013 C 606.8164,149.61306 609.14713,148.64952 612.01172,148.6495 C 614.78514,148.64952 617.05077,149.59353 618.80859,151.48153 C 620.56639,153.36957 621.44529,156.02582 621.44531,159.45028 C 621.44529,159.65863 621.43878,159.97113 621.42578,160.38778 L 605.95703,160.38778 C 606.08723,162.66644 606.73176,164.41123 607.89062,165.62216 C 609.04947,166.8331 610.49478,167.43857 612.22656,167.43856 C 613.51561,167.43857 614.61587,167.10003 615.52734,166.42294 C 616.43879,165.74586 617.16144,164.66513 617.69531,163.18075 L 617.69531,163.18075 z M 606.15234,157.49716 L 617.73438,157.49716 C 617.57811,155.75238 617.1354,154.44379 616.40625,153.57138 C 615.28644,152.21723 613.83462,151.54014 612.05078,151.54013 C 610.43619,151.54014 609.07877,152.08051 607.97852,153.16122 C 606.87825,154.24197 606.26953,155.68728 606.15234,157.49716 L 606.15234,157.49716 z M 624.35547,163.66903 L 627.83203,163.12216 C 628.02734,164.51539 628.57096,165.5831 629.46289,166.32528 C 630.35481,167.06747 631.60155,167.43857 633.20312,167.43856 C 634.8177,167.43857 636.01561,167.10979 636.79688,166.45224 C 637.57811,165.79469 637.96874,165.0232 637.96875,164.13778 C 637.96874,163.34352 637.62368,162.71852 636.93359,162.26278 C 636.45181,161.95029 635.25389,161.55316 633.33984,161.07138 C 630.76171,160.42034 628.9746,159.85719 627.97852,159.38192 C 626.98242,158.90667 626.22721,158.24912 625.71289,157.40927 C 625.19857,156.56944 624.9414,155.6417 624.94141,154.62606 C 624.9414,153.7016 625.15299,152.84548 625.57617,152.0577 C 625.99935,151.26996 626.57552,150.61567 627.30469,150.09481 C 627.85156,149.69119 628.597,149.34939 629.54102,149.06942 C 630.48502,148.7895 631.49739,148.64952 632.57812,148.6495 C 634.20572,148.64952 635.63475,148.8839 636.86523,149.35263 C 638.09569,149.8214 639.00389,150.45616 639.58984,151.25692 C 640.17576,152.05772 640.57941,153.12868 640.80078,154.46981 L 637.36328,154.93856 C 637.20702,153.87087 636.75454,153.03754 636.00586,152.43856 C 635.25715,151.83962 634.19921,151.54014 632.83203,151.54013 C 631.21744,151.54014 630.0651,151.80707 629.375,152.34091 C 628.68489,152.87478 628.33984,153.49978 628.33984,154.21591 C 628.33984,154.67165 628.48307,155.08181 628.76953,155.44638 C 629.05598,155.82399 629.5052,156.13649 630.11719,156.38388 C 630.46874,156.5141 631.5039,156.81358 633.22266,157.28231 C 635.70962,157.94639 637.44465,158.49001 638.42773,158.91317 C 639.41079,159.33636 640.18227,159.95159 640.74219,160.75888 C 641.30207,161.56618 641.58201,162.56878 641.58203,163.76669 C 641.58201,164.93857 641.24022,166.04208 640.55664,167.07724 C 639.87303,168.11239 638.8867,168.91317 637.59766,169.47958 C 636.30858,170.04599 634.85025,170.32919 633.22266,170.32919 C 630.52734,170.32919 628.4733,169.76929 627.06055,168.6495 C 625.64778,167.52971 624.74609,165.86956 624.35547,163.66903 L 624.35547,163.66903 z"
     id="flowRoot3261" />
</svg>
